<svg version="1.1" id="Layer_1" xmlns="http://www.w3.org/2000/svg" xmlns:xlink="http://www.w3.org/1999/xlink" x="0px" y="0px"
	 width="100%" viewBox="0 0 2000 2000" enable-background="new 0 0 2000 2000" xml:space="preserve">
<path fill="#FFFFFF" opacity="1.000000" stroke="none" 
	d="
M1318.000000,2001.000000 
	C880.166687,2001.000000 442.833344,2000.994385 5.500021,2001.092896 
	C1.750949,2001.093750 0.906737,2000.249023 0.907281,1996.500000 
	C1.003694,1332.833374 1.003694,669.166687 0.907281,5.500014 
	C0.906737,1.751003 1.751000,0.906735 5.500013,0.907280 
	C669.166687,1.003704 1332.833374,1.003704 1996.500000,0.907280 
	C2000.249023,0.906735 2001.093262,1.751001 2001.092651,5.500013 
	C2000.996338,669.166687 2000.996216,1332.833374 2001.092651,1996.500000 
	C2001.093140,2000.249023 2000.249146,2001.095093 1996.500000,2001.093384 
	C1770.500000,2000.989136 1544.500000,2001.000000 1318.000000,2001.000000 
z"/>
<path fill="#990099" opacity="1.000000" stroke="none" 
	d="
M1495.964600,1219.000000 
	C1523.311401,1218.154297 1549.081909,1212.798096 1573.509155,1201.232666 
	C1590.574097,1193.153198 1606.063721,1182.983032 1620.252930,1170.451660 
	C1637.298218,1155.397827 1650.605347,1137.624146 1662.023315,1118.155762 
	C1674.325439,1097.180176 1682.238892,1074.577881 1686.789795,1050.862549 
	C1689.042603,1039.122192 1689.826416,1027.119263 1690.171387,1015.060364 
	C1690.869873,990.649048 1687.294922,967.091431 1679.081177,944.140381 
	C1672.039795,924.465027 1661.545166,906.871643 1648.316772,890.731323 
	C1629.304443,867.533752 1605.875244,850.190796 1578.906738,837.480225 
	C1564.371826,830.629700 1548.961426,825.991821 1533.905029,820.469360 
	C1501.968872,808.755798 1469.992798,797.151184 1438.028320,785.515015 
	C1401.343872,772.160400 1364.660767,758.802551 1327.965332,745.478210 
	C1290.356445,731.822083 1252.710449,718.268127 1215.127319,704.541504 
	C1198.478760,698.460938 1181.362427,695.355774 1163.693970,693.807922 
	C1138.910156,691.636658 1115.093506,695.315247 1091.762451,703.042664 
	C1070.684326,710.023987 1051.932861,721.172119 1034.910645,735.490723 
	C1008.684204,757.551514 989.529297,784.838257 975.226501,815.626831 
	C966.784180,833.799927 960.871521,852.812439 958.854431,872.981079 
	C957.801636,883.508301 956.566589,893.996216 957.046936,904.561218 
	C958.111755,927.982361 962.431030,950.790771 970.393005,972.896301 
	C973.810059,982.383362 977.611145,991.696533 982.333374,1000.591980 
	C983.716736,1003.197632 983.350769,1004.759583 981.632385,1006.960449 
	C966.873352,1025.862549 949.632690,1042.061646 929.434082,1055.008423 
	C917.369324,1062.741699 904.656921,1069.258667 891.248901,1074.409790 
	C888.238403,1075.566406 886.963074,1074.704346 885.436401,1072.035278 
	C873.536438,1051.230225 864.048401,1029.317871 856.465515,1006.666931 
	C850.495361,988.833557 845.677002,970.617249 842.927490,951.908691 
	C840.944519,938.415466 839.549622,924.920532 838.720947,911.292603 
	C838.237366,903.341309 837.734985,895.380066 838.126770,887.495056 
	C839.377014,862.336304 842.551392,837.411804 849.449951,813.090942 
	C858.237854,782.109924 871.103149,752.987549 888.515625,725.820801 
	C898.957642,709.529358 910.712830,694.374512 923.488037,679.848572 
	C946.150635,654.080078 972.601562,632.949829 1001.729736,615.210022 
	C1021.996582,602.866882 1043.593506,593.053955 1066.322144,585.902771 
	C1084.032104,580.330627 1102.032349,576.389526 1120.455811,573.796509 
	C1138.994751,571.187439 1157.600464,571.186584 1176.025879,572.317383 
	C1204.173340,574.044983 1231.542603,580.305664 1258.109253,590.395508 
	C1295.509644,604.599792 1333.292603,617.795532 1370.903198,631.446899 
	C1408.666870,645.153809 1446.415039,658.902771 1484.178345,672.610596 
	C1521.787964,686.262634 1559.264526,700.301025 1597.068726,713.391846 
	C1627.257935,723.845825 1655.325806,738.218384 1681.498901,756.302917 
	C1694.587891,765.346863 1706.651123,775.736572 1718.337646,786.630249 
	C1738.866333,805.766113 1756.360352,827.320129 1770.548340,851.370850 
	C1784.778198,875.492188 1796.103516,901.026733 1802.986938,928.338440 
	C1806.009399,940.330688 1808.404419,952.417053 1810.119507,964.692749 
	C1812.574707,982.264343 1813.590942,999.881470 1812.897583,1017.554626 
	C1812.390503,1030.482178 1811.096069,1043.355713 1809.212280,1056.215576 
	C1806.067993,1077.680542 1800.909424,1098.587036 1793.990112,1119.070068 
	C1783.140381,1151.188232 1767.233032,1180.652954 1746.833130,1207.739502 
	C1738.119019,1219.309692 1728.756104,1230.253784 1718.838867,1240.827881 
	C1695.681763,1265.519165 1669.174805,1285.722168 1639.499756,1301.842651 
	C1611.775757,1316.902832 1582.408569,1327.312256 1551.353516,1333.112183 
	C1538.459473,1335.520386 1525.534668,1337.047729 1512.474487,1338.222046 
	C1500.003052,1339.343384 1487.545410,1339.421997 1475.178955,1338.810181 
	C1445.294434,1337.331543 1415.814819,1332.619019 1387.493530,1322.676392 
	C1357.233643,1312.053101 1327.257690,1300.622192 1297.139160,1289.594482 
	C1261.392456,1276.505859 1225.630737,1263.458740 1189.866821,1250.417236 
	C1154.255859,1237.431641 1118.636230,1224.469971 1083.016846,1211.507812 
	C1062.162598,1203.919067 1041.262817,1196.452271 1020.471313,1188.695923 
	C1015.612305,1186.883057 1011.028076,1184.261963 1006.477966,1181.724609 
	C1004.366516,1180.547241 1002.624084,1179.111572 1006.437378,1177.093262 
	C1022.922729,1168.368164 1038.054810,1157.633423 1052.113770,1145.382812 
	C1070.571289,1129.299561 1087.334595,1111.679077 1101.250854,1091.449951 
	C1102.142944,1090.153076 1102.885010,1088.690308 1105.561768,1089.697632 
	C1122.383301,1096.027222 1139.369019,1101.918213 1156.254517,1108.080078 
	C1187.451416,1119.464722 1218.609741,1130.955078 1249.796875,1142.366211 
	C1285.546509,1155.446533 1321.307617,1168.494995 1357.068115,1181.545410 
	C1385.370239,1191.874146 1413.609009,1202.384644 1442.034790,1212.361328 
	C1449.020508,1214.812988 1456.569458,1215.948364 1463.961304,1216.884766 
	C1474.400879,1218.207031 1484.889648,1219.496094 1495.964600,1219.000000 
z"/>
<path fill="#660066" opacity="1.000000" stroke="none" 
	d="
M454.433472,1217.745728 
	C467.941437,1219.895386 481.130341,1220.188110 494.364502,1220.035400 
	C516.276855,1219.782349 537.273804,1214.902222 557.755127,1207.602295 
	C575.232483,1201.372925 592.666992,1195.028320 610.170471,1188.865723 
	C641.829590,1177.719116 673.270386,1165.954346 704.863098,1154.616699 
	C738.276978,1142.625610 771.860291,1131.100708 805.186157,1118.872437 
	C835.639771,1107.698242 866.263062,1097.004395 896.733887,1085.889404 
	C917.439392,1078.336670 936.074341,1066.942383 953.347229,1053.226562 
	C971.254089,1039.007446 986.426819,1022.395935 998.494202,1002.989624 
	C1010.729553,983.313110 1019.303162,962.258667 1024.225342,939.470154 
	C1028.215942,920.995178 1028.667603,902.443481 1027.774292,883.880920 
	C1027.018066,868.171753 1023.716797,852.695618 1019.260986,837.499207 
	C1014.876282,822.545105 1009.440063,808.072388 1002.043457,794.351318 
	C1001.117676,792.633789 1001.373840,791.500366 1002.573914,789.670776 
	C1019.763062,763.464722 1041.720703,742.416504 1069.033081,726.930664 
	C1074.969116,723.565002 1080.997192,720.520935 1087.272095,717.853638 
	C1089.855835,716.755310 1090.765015,717.078186 1092.252808,719.457764 
	C1104.823486,739.563843 1115.531494,760.548035 1124.106445,782.696228 
	C1132.202759,803.608704 1137.925659,825.148743 1141.769775,847.134766 
	C1143.651978,857.899658 1144.601562,868.893494 1145.212036,879.899170 
	C1145.670776,888.169495 1146.433105,896.456787 1145.889648,904.681213 
	C1144.629517,923.753113 1143.088257,942.774780 1139.342529,961.629028 
	C1135.928223,978.814453 1131.694580,995.708008 1125.984009,1012.229187 
	C1115.269531,1043.226440 1100.267944,1072.034546 1080.271973,1098.044189 
	C1071.334351,1109.669800 1061.683960,1120.829834 1050.745361,1130.684814 
	C1032.554810,1147.073486 1012.923035,1161.392578 991.457764,1173.391602 
	C971.542603,1184.524048 950.198547,1191.834473 928.939270,1199.539429 
	C896.020996,1211.470215 863.115234,1223.435181 830.197998,1235.368774 
	C791.514404,1249.392822 752.824280,1263.399170 714.137024,1277.413208 
	C675.449768,1291.427246 636.709045,1305.296143 598.097717,1319.516357 
	C578.728027,1326.650024 558.818054,1331.639893 538.520203,1334.810059 
	C525.235413,1336.884888 511.800659,1338.237793 498.232239,1338.205811 
	C491.718811,1338.190552 485.213654,1338.267578 478.681610,1338.180054 
	C455.322205,1337.867432 432.518555,1334.249878 409.962708,1328.497681 
	C386.955292,1322.630371 365.032318,1313.933594 344.250061,1302.564087 
	C326.982269,1293.117554 310.652893,1282.204468 295.664886,1269.300293 
	C286.506317,1261.415161 277.424316,1253.465820 269.206360,1244.626099 
	C252.175888,1226.306885 237.014175,1206.571411 223.946823,1185.173218 
	C208.243210,1159.458496 196.351898,1132.139038 187.721466,1103.334961 
	C182.972168,1087.484131 179.462402,1071.375000 176.930084,1055.011475 
	C174.101791,1036.735229 172.807266,1018.406250 172.938354,999.917053 
	C173.060959,982.627441 174.936340,965.582520 177.871445,948.555054 
	C180.659668,932.379761 184.847153,916.607422 190.437469,901.260681 
	C200.135162,874.638184 213.535599,849.940552 230.347168,827.070740 
	C241.708969,811.614624 254.297455,797.254944 268.355011,784.275024 
	C286.112030,767.879272 305.435089,753.426025 326.381256,741.344971 
	C343.779419,731.310242 362.007019,723.029480 381.031982,716.347717 
	C411.171661,705.762451 441.052399,694.440552 471.054993,683.463928 
	C509.393555,669.437378 547.739380,655.430664 586.091248,641.440491 
	C621.714233,628.445679 657.322449,615.409485 692.991089,602.541077 
	C709.383789,596.626892 725.605652,590.247498 742.207275,584.894043 
	C758.787109,579.547668 775.697266,576.134094 792.966064,573.856873 
	C809.979187,571.613220 827.043762,571.323242 844.021667,572.209229 
	C868.252869,573.473755 892.149719,577.659058 915.340088,585.097473 
	C936.918213,592.018860 957.521301,601.160339 977.441101,612.898560 
	C959.423889,625.438477 943.164124,639.395020 928.024841,654.589966 
	C914.119019,668.546997 901.765137,683.889709 890.136475,699.782349 
	C888.753845,701.672058 888.200745,701.879517 886.030518,701.101501 
	C875.042969,697.162170 863.736328,694.558655 852.149292,692.847473 
	C845.128418,691.810669 837.969910,691.099609 831.095032,691.293640 
	C813.690369,691.784973 796.459045,694.337097 779.943970,700.500244 
	C751.977905,710.936768 724.005249,721.360901 695.931824,731.503662 
	C659.964600,744.498413 623.809387,756.975891 587.895874,770.115601 
	C558.342468,780.928345 528.707092,791.502441 499.065613,802.066711 
	C469.579102,812.575806 439.992218,822.854553 410.853760,834.266907 
	C396.236633,839.991882 382.974701,848.739441 370.270996,858.151123 
	C359.747437,865.947510 350.185760,874.768982 341.268829,884.286255 
	C319.635254,907.376282 305.086914,934.361450 296.942963,964.942383 
	C291.566986,985.129456 290.851868,1005.737305 292.251617,1026.241455 
	C293.835510,1049.441650 299.829895,1071.883911 308.809021,1093.437012 
	C316.381500,1111.613647 325.367584,1129.107910 337.434967,1144.641724 
	C353.853027,1165.776001 373.092682,1183.930542 396.795898,1197.054565 
	C413.647888,1206.385254 431.510376,1212.686279 450.186584,1216.957031 
	C451.450500,1217.246094 452.865784,1216.602051 454.433472,1217.745728 
z"/>
<path fill="#990099" opacity="1.000000" stroke="none" 
	d="
M1405.721924,612.296997 
	C1386.740112,601.653137 1370.262329,588.382141 1356.109741,572.444580 
	C1342.638916,557.274658 1331.891724,540.313538 1323.663452,521.598083 
	C1316.325562,504.907379 1311.564697,487.588135 1309.255981,469.721191 
	C1307.418579,455.503510 1307.426880,441.101074 1308.811646,426.660034 
	C1310.252563,411.632782 1313.168335,397.041595 1318.015015,382.832184 
	C1325.711792,360.267151 1337.316406,339.924622 1352.741577,321.652557 
	C1371.692871,299.203644 1394.515503,282.016907 1421.229492,270.013092 
	C1436.839355,262.998932 1453.222900,258.660797 1470.154053,255.818741 
	C1485.193359,253.294266 1500.278442,253.367950 1515.227295,254.258667 
	C1537.090942,255.561401 1558.073242,261.419678 1578.132202,270.520538 
	C1596.725586,278.956390 1613.288208,290.186951 1628.500366,303.801971 
	C1643.444092,317.176910 1655.321289,332.777679 1665.462036,349.908478 
	C1673.961914,364.267517 1680.110229,379.576874 1684.265869,395.689148 
	C1687.326050,407.554291 1689.323120,419.576355 1690.142456,431.861298 
	C1690.725342,440.602356 1690.698242,449.212250 1690.129883,457.955475 
	C1688.731689,479.465118 1683.825806,500.035400 1675.592529,519.901123 
	C1669.319214,535.037781 1660.771851,548.817627 1651.012085,561.895569 
	C1641.405029,574.768799 1629.977173,585.867920 1617.450684,595.844421 
	C1607.627441,603.667908 1597.039307,610.420776 1585.798218,615.946106 
	C1567.651733,624.865784 1548.619263,631.010132 1528.512573,634.181702 
	C1512.808350,636.658752 1497.021606,636.908264 1481.449707,635.677429 
	C1454.785645,633.569824 1429.559692,625.478882 1405.721924,612.296997 
z"/>
<path fill="#660066" opacity="1.000000" stroke="none" 
	d="
M503.363403,254.698608 
	C522.109619,255.995850 539.510742,260.902527 556.437256,267.796265 
	C572.757324,274.442963 587.949585,283.019104 601.785767,293.965485 
	C612.307007,302.289276 621.640442,311.782867 630.500916,321.856140 
	C642.117554,335.062775 650.939209,349.944763 658.293030,365.770935 
	C665.697388,381.705902 670.283142,398.442566 673.162598,415.813446 
	C675.597839,430.504669 675.455017,445.221008 674.796265,459.866425 
	C673.917236,479.408478 669.238525,498.390381 661.741760,516.480164 
	C654.893555,533.004822 646.433472,548.679016 635.094849,562.709656 
	C626.660461,573.146545 617.225708,582.499146 607.242126,591.440063 
	C593.494629,603.751953 577.781921,612.810364 561.134521,620.297119 
	C545.889160,627.153320 529.895142,631.532532 513.296753,634.173889 
	C499.432892,636.380066 485.584930,636.227600 471.736481,635.880188 
	C451.751495,635.378662 432.472534,630.629761 413.945984,623.347961 
	C396.065582,616.320007 379.219543,607.133118 364.405212,594.789490 
	C341.480865,575.688354 322.666321,553.260315 310.312683,525.784058 
	C302.838562,509.160492 297.627228,491.994324 294.797974,473.902985 
	C292.445160,458.858337 292.521271,443.814545 293.235016,428.847687 
	C294.110718,410.486053 298.583099,392.557739 305.362610,375.467407 
	C312.499603,357.476013 321.684723,340.428436 334.134857,325.475464 
	C353.341583,302.407593 375.935425,283.501434 403.556610,271.118958 
	C420.171631,263.670532 437.371033,258.467651 455.497681,255.804031 
	C471.350006,253.474594 487.116821,253.941498 503.363403,254.698608 
z"/>
<path fill="#999999" opacity="1.000000" stroke="none" 
	d="
M847.608887,1735.713135 
	C832.726746,1743.170166 817.390076,1747.424194 801.150696,1749.161621 
	C788.014709,1750.567261 774.853027,1750.557617 761.838562,1749.734619 
	C743.805847,1748.594116 726.056152,1745.022095 709.433044,1737.222168 
	C705.895752,1735.562256 704.648010,1734.147583 705.722961,1729.778442 
	C707.674133,1721.847290 709.625061,1713.819946 711.556030,1705.930786 
	C713.143494,1699.445068 714.644592,1692.466187 717.644104,1686.185913 
	C731.751770,1693.468506 746.467346,1698.119141 762.111023,1700.090454 
	C776.599792,1701.916382 790.803406,1701.934692 804.219177,1695.312500 
	C818.060852,1688.480103 825.462280,1677.033081 828.137329,1661.943604 
	C829.516663,1654.163086 828.480530,1646.499756 828.597168,1638.510254 
	C823.975525,1644.560547 818.142761,1648.918701 812.039856,1653.033325 
	C803.340759,1658.898315 793.495605,1661.808350 783.384216,1662.787964 
	C763.486694,1664.715942 744.457214,1661.166626 727.617859,1649.784790 
	C706.862244,1635.756104 695.549866,1615.340332 690.133057,1591.440308 
	C687.801819,1581.154175 686.594482,1570.576660 687.067993,1560.004761 
	C688.248108,1533.657471 694.466431,1508.786865 711.678894,1488.035645 
	C725.360229,1471.541504 742.699219,1460.492676 764.222473,1456.999390 
	C781.410950,1454.209717 798.256409,1454.873657 814.130066,1463.050415 
	C823.115112,1467.678711 830.137207,1474.535522 836.411255,1482.868774 
	C836.572388,1476.815186 838.000183,1470.960938 837.907043,1465.008789 
	C837.848938,1461.291870 838.591064,1459.820923 842.763855,1459.893188 
	C858.253235,1460.161499 873.752930,1460.162842 889.242188,1459.892334 
	C893.429993,1459.819214 894.227417,1461.304565 894.049194,1465.019287 
	C891.926392,1509.262695 893.436401,1553.537598 893.016357,1597.796997 
	C892.907227,1609.291504 893.057068,1620.788330 892.987061,1632.283325 
	C892.873352,1650.959229 891.610352,1669.549316 885.899048,1687.453735 
	C879.583862,1707.250854 868.427551,1723.546631 849.914612,1734.045044 
	C849.202820,1734.448730 848.587280,1735.022217 847.608887,1735.713135 
z"/>
<path fill="#999999" opacity="1.000000" stroke="none" 
	d="
M560.000000,1605.000000 
	C560.000000,1588.668823 560.237305,1572.832642 559.905823,1557.008423 
	C559.723633,1548.310913 559.109192,1539.601074 557.048340,1531.036987 
	C551.169434,1506.607422 524.237549,1501.795898 508.815552,1514.655273 
	C500.281616,1521.771362 495.624268,1530.751831 494.987122,1541.877075 
	C492.767426,1580.633789 494.498962,1619.421875 494.137848,1658.193115 
	C494.091705,1663.150024 492.734009,1664.191772 488.031372,1664.115234 
	C470.371765,1663.827637 452.702484,1663.850220 435.041931,1664.107178 
	C430.726166,1664.170044 429.901733,1662.784668 429.911865,1658.764893 
	C430.044312,1605.939087 430.245605,1553.110840 429.812469,1500.288208 
	C429.714691,1488.364624 429.172760,1476.407715 428.928772,1464.461670 
	C428.859192,1461.055176 429.707123,1459.873535 433.316193,1459.917358 
	C449.145020,1460.109863 464.978241,1460.077148 480.808167,1459.935791 
	C483.992188,1459.907471 484.954102,1460.742310 485.120972,1464.070312 
	C485.497864,1471.586670 486.526855,1479.070312 487.344513,1487.097290 
	C490.660645,1484.953125 491.907410,1481.609131 494.219208,1479.234863 
	C504.824219,1468.343994 517.340149,1460.443970 532.240479,1457.542969 
	C549.674438,1454.148926 567.181885,1454.518433 583.617310,1462.352905 
	C603.660400,1471.907104 614.509583,1488.886719 619.924438,1509.714478 
	C622.877258,1521.072021 623.989990,1532.735840 623.994507,1544.479248 
	C624.009094,1582.307495 623.875061,1620.136475 624.143372,1657.962891 
	C624.180908,1663.243530 622.599731,1664.196411 617.759216,1664.114014 
	C600.599854,1663.821655 583.432434,1664.028442 566.268188,1663.986450 
	C559.122559,1663.968872 560.032959,1664.839722 560.014221,1657.493164 
	C559.969910,1640.162231 560.000000,1622.831055 560.000000,1605.000000 
z"/>
<path fill="#999999" opacity="1.000000" stroke="none" 
	d="
M187.990356,1621.950684 
	C180.427048,1608.361084 176.416260,1594.195923 174.859467,1579.035400 
	C171.835922,1549.591797 177.414764,1522.385010 193.765717,1497.524658 
	C208.686813,1474.838379 230.207825,1461.730957 256.349121,1457.364014 
	C277.978790,1453.750732 300.007172,1454.226807 320.375397,1464.244995 
	C343.338806,1475.539551 356.759705,1494.747437 364.059143,1518.867188 
	C369.078918,1535.454102 369.346527,1552.394409 368.958618,1569.437744 
	C368.880188,1572.884399 368.364807,1576.330200 367.902496,1579.756226 
	C367.449188,1583.115967 364.939178,1583.033325 362.319275,1583.028687 
	C335.996704,1582.981689 309.673981,1583.000000 283.351318,1583.000000 
	C269.023773,1583.000000 254.694641,1583.120239 240.369675,1582.928467 
	C235.944870,1582.869141 235.473190,1584.370483 236.570358,1588.251099 
	C241.486572,1605.639771 254.650787,1613.548340 270.687958,1617.726196 
	C284.964264,1621.445312 299.543610,1620.350586 314.098053,1619.167480 
	C325.138031,1618.270386 335.856476,1615.951294 346.423859,1612.880859 
	C349.399963,1612.016113 349.782684,1612.856445 350.284027,1615.477417 
	C352.683746,1628.022705 355.357300,1640.515503 357.881683,1653.037354 
	C358.290710,1655.066528 357.628693,1656.319702 355.347626,1657.087402 
	C340.351257,1662.134277 325.091797,1665.596924 309.278992,1667.161865 
	C297.140350,1668.363159 285.033997,1668.183350 272.951385,1667.867920 
	C249.564758,1667.257446 227.836670,1660.704956 209.090775,1646.348755 
	C200.590210,1639.838867 193.492813,1631.719116 187.990356,1621.950684 
z"/>
<path fill="#999999" opacity="1.000000" stroke="none" 
	d="
M1613.011719,1664.000000 
	C1603.348022,1665.449707 1597.517578,1662.246826 1592.020752,1654.033691 
	C1576.031250,1630.142334 1558.729858,1607.129028 1541.928955,1583.781250 
	C1538.284790,1578.717041 1534.582397,1573.694824 1530.733276,1568.415283 
	C1525.426025,1574.177124 1520.203857,1580.004028 1514.791016,1585.648193 
	C1512.517822,1588.018677 1511.952393,1590.657349 1511.962524,1593.785889 
	C1512.033325,1615.615356 1511.919678,1637.445801 1512.079468,1659.274292 
	C1512.105957,1662.883301 1511.344849,1664.225952 1507.446655,1664.095459 
	C1498.458130,1663.794434 1489.444336,1663.770142 1480.457886,1664.100098 
	C1476.167114,1664.257812 1474.841553,1663.244263 1474.879272,1658.678223 
	C1475.117310,1629.851562 1475.000000,1601.022095 1475.000000,1572.193481 
	C1475.000000,1506.037720 1475.040771,1439.881836 1474.908081,1373.726440 
	C1474.899292,1369.332153 1475.770386,1367.645752 1480.554565,1367.880127 
	C1489.199097,1368.303833 1497.888184,1368.234497 1506.540649,1367.900757 
	C1510.829346,1367.735229 1512.131104,1368.755249 1512.116821,1373.319824 
	C1511.938354,1430.309814 1512.000000,1487.300659 1512.000000,1544.291260 
	C1512.000000,1545.291138 1511.856567,1546.317017 1512.033081,1547.284790 
	C1512.307495,1548.790527 1510.971802,1551.071655 1513.056519,1551.625366 
	C1514.369751,1551.974243 1515.178711,1549.958374 1516.122437,1548.800659 
	C1524.662964,1538.323120 1533.304932,1527.927734 1541.961914,1517.545654 
	C1553.784912,1503.366943 1565.633179,1489.209229 1577.503296,1475.069946 
	C1580.053589,1472.032104 1582.881348,1469.219727 1585.329224,1466.105347 
	C1587.935425,1462.789551 1591.080566,1461.811157 1595.274536,1461.899902 
	C1608.233276,1462.174072 1621.201416,1462.000000 1634.082642,1462.000000 
	C1634.592285,1463.301880 1633.709717,1463.743774 1633.187622,1464.287842 
	C1624.559814,1473.278320 1615.751465,1482.101807 1607.307007,1491.260986 
	C1591.903076,1507.968628 1576.573120,1524.741699 1560.598511,1540.911377 
	C1558.191406,1543.348022 1557.029175,1545.270752 1559.826904,1548.942871 
	C1578.258179,1573.134644 1596.330811,1597.599854 1614.489624,1621.998657 
	C1624.663208,1635.668213 1634.778198,1649.381348 1645.604858,1664.000000 
	C1634.293945,1664.000000 1623.901367,1664.000000 1613.011719,1664.000000 
z"/>
<path fill="#999999" opacity="1.000000" stroke="none" 
	d="
M1257.263428,1487.424805 
	C1264.638794,1477.819092 1273.419678,1470.473511 1284.069824,1465.471069 
	C1293.849854,1460.877441 1304.016357,1458.291626 1314.967041,1457.841309 
	C1328.741821,1457.274780 1341.706909,1459.277100 1353.841797,1465.952271 
	C1372.550781,1476.244019 1382.816040,1492.573730 1388.098999,1512.802856 
	C1391.291870,1525.028442 1390.996704,1537.378662 1390.998291,1549.774414 
	C1391.002930,1586.099487 1390.937744,1622.424927 1391.088257,1658.749390 
	C1391.104858,1662.746582 1390.326050,1664.287354 1385.971313,1664.106201 
	C1377.321533,1663.746704 1368.634033,1663.724731 1359.986450,1664.109985 
	C1355.295166,1664.318970 1353.839722,1663.203369 1353.871094,1658.206543 
	C1354.107300,1620.549927 1354.262817,1582.888306 1353.863037,1545.234375 
	C1353.715576,1531.344727 1351.363037,1517.573730 1342.904053,1505.887207 
	C1335.198242,1495.240967 1324.580444,1489.624756 1311.343506,1488.983154 
	C1283.315186,1487.624390 1262.848755,1506.927612 1257.226685,1532.864258 
	C1256.256226,1537.341064 1256.061646,1542.054443 1256.050537,1546.659790 
	C1255.960693,1583.984497 1255.914795,1621.309937 1256.112061,1658.633789 
	C1256.135620,1663.098633 1254.978271,1664.286743 1250.586792,1664.107056 
	C1241.770264,1663.746582 1232.919434,1663.764282 1224.101074,1664.102173 
	C1219.859741,1664.264648 1218.894897,1662.924561 1218.907227,1658.822388 
	C1219.051636,1610.666992 1218.830933,1562.510132 1219.102905,1514.355957 
	C1219.184570,1499.886719 1217.427124,1485.494019 1218.016235,1471.034668 
	C1218.134155,1468.143188 1215.152344,1464.705933 1217.803345,1462.620972 
	C1220.149292,1460.776001 1223.913452,1462.077759 1227.045898,1462.029907 
	C1233.542847,1461.930786 1240.049072,1462.176025 1246.538208,1461.928223 
	C1249.951050,1461.798096 1251.377319,1462.691284 1251.048584,1466.319336 
	C1250.402466,1473.451172 1252.645386,1480.478516 1252.055176,1487.645630 
	C1251.944580,1488.990234 1251.212280,1490.943726 1252.876953,1491.691772 
	C1255.188232,1492.730591 1255.091553,1489.809937 1256.375854,1489.021240 
	C1256.734619,1488.800659 1256.848022,1488.180786 1257.263428,1487.424805 
z"/>
<path fill="#999999" opacity="1.000000" stroke="none" 
	d="
M1710.277588,1559.769531 
	C1698.991089,1551.099365 1689.706421,1541.246704 1687.585815,1526.951660 
	C1685.181763,1510.746460 1687.556152,1495.377808 1698.327637,1482.161987 
	C1712.266602,1465.060059 1730.812622,1458.553101 1752.265625,1457.914307 
	C1770.067261,1457.384399 1787.057007,1459.900024 1803.148438,1467.922363 
	C1806.702515,1469.694458 1806.955688,1471.448486 1805.717407,1474.739380 
	C1802.885010,1482.265991 1800.357422,1489.907593 1797.614990,1497.762939 
	C1789.036621,1493.337280 1780.446533,1489.177368 1770.971313,1487.500366 
	C1758.641113,1485.317871 1746.441528,1484.489624 1735.031738,1491.391968 
	C1718.538086,1501.369873 1718.004028,1524.980835 1736.475342,1535.340698 
	C1747.178711,1541.343872 1758.722290,1545.119507 1769.808594,1550.074585 
	C1785.671875,1557.164795 1800.962891,1565.640015 1808.388184,1582.217285 
	C1818.140991,1603.991089 1816.426758,1625.185791 1801.106079,1644.411743 
	C1791.256104,1656.772339 1777.676392,1662.459595 1762.839233,1666.009521 
	C1749.901855,1669.104858 1736.700073,1668.605103 1723.716919,1667.739746 
	C1709.954834,1666.822510 1696.544312,1663.192749 1684.124146,1656.644409 
	C1681.187500,1655.096069 1680.515869,1653.557129 1681.742920,1650.343872 
	C1684.378296,1643.443237 1686.688721,1636.403931 1688.786011,1629.318970 
	C1689.703125,1626.221191 1690.216919,1625.736816 1693.353516,1627.536621 
	C1710.093262,1637.142334 1728.192261,1641.868286 1747.494507,1639.862793 
	C1760.159302,1638.546753 1773.012939,1632.302979 1776.073486,1618.638184 
	C1779.159790,1604.857788 1776.309082,1595.590454 1765.190186,1587.103149 
	C1757.253174,1581.044678 1747.978149,1577.438843 1738.692627,1574.107178 
	C1728.712769,1570.526123 1719.359863,1565.843994 1710.277588,1559.769531 
z"/>
<path fill="#999999" opacity="1.000000" stroke="none" 
	d="
M1010.000000,1616.000000 
	C1010.000000,1630.331177 1009.801880,1644.166626 1010.111023,1657.990967 
	C1010.214722,1662.628662 1009.296387,1664.417969 1004.224548,1664.128296 
	C995.919617,1663.654419 987.554199,1663.713013 979.241089,1664.109375 
	C974.378845,1664.341309 972.842712,1663.231323 972.860596,1657.960693 
	C973.075989,1594.471558 973.000000,1530.981567 973.000000,1467.491699 
	C973.000000,1436.330078 973.098999,1405.167725 972.892273,1374.007446 
	C972.861511,1369.380371 973.703308,1367.582153 978.775391,1367.871826 
	C987.080383,1368.345825 995.445740,1368.286987 1003.758911,1367.890625 
	C1008.621155,1367.658691 1010.152039,1368.769287 1010.138306,1374.039185 
	C1009.937134,1451.192993 1010.000000,1528.347412 1010.000000,1605.501709 
	C1010.000000,1608.834473 1010.000000,1612.167236 1010.000000,1616.000000 
z"/>
<path fill="#999999" opacity="1.000000" stroke="none" 
	d="
M1124.936279,1462.000000 
	C1132.999756,1462.001709 1133.000000,1462.001709 1133.000000,1469.699585 
	C1133.000000,1532.688232 1132.945557,1595.677002 1133.114258,1658.665161 
	C1133.126465,1663.196655 1131.876953,1664.265381 1127.555664,1664.102417 
	C1118.570068,1663.763794 1109.556152,1663.797363 1100.567627,1664.094238 
	C1096.692871,1664.222168 1095.911255,1662.917725 1095.921753,1659.289062 
	C1096.044067,1617.130371 1096.000000,1574.971191 1096.000000,1532.812134 
	C1096.000000,1510.816040 1096.110840,1488.818970 1095.900024,1466.824951 
	C1095.861084,1462.758423 1097.121094,1461.781250 1100.953979,1461.916870 
	C1108.776123,1462.193970 1116.614868,1462.000000 1124.936279,1462.000000 
z"/>
<path fill="#999999" opacity="1.000000" stroke="none" 
	d="
M1099.847168,1424.303955 
	C1086.395752,1411.003784 1089.363770,1390.609131 1106.224487,1384.154907 
	C1120.549194,1378.671509 1136.668457,1385.741455 1137.959717,1404.157959 
	C1138.606201,1413.377686 1135.698120,1421.250366 1127.202026,1425.860229 
	C1118.057129,1430.822266 1108.894409,1430.218506 1099.847168,1424.303955 
z"/>
<path fill="#FFFFFF" opacity="1.000000" stroke="none" 
	d="
M787.224365,1614.989014 
	C766.789490,1610.334473 757.596619,1596.034302 754.094910,1577.310547 
	C750.928040,1560.376709 751.945862,1543.688599 759.594177,1527.804321 
	C766.266785,1513.946411 777.018433,1505.288940 792.371094,1504.296265 
	C802.073486,1503.669067 811.039795,1507.478882 817.947083,1514.871094 
	C826.342224,1523.855347 828.627319,1535.081543 828.923584,1546.777222 
	C829.234314,1559.046021 829.641235,1571.388672 827.906128,1583.570190 
	C825.703186,1599.036255 814.496643,1613.350464 797.305115,1615.183472 
	C793.963013,1615.539917 790.864258,1614.819946 787.224365,1614.989014 
z"/>
<path fill="#FFFFFF" opacity="1.000000" stroke="none" 
	d="
M294.935333,1504.978760 
	C305.731323,1513.832153 308.769562,1525.702515 309.376373,1539.000000 
	C299.106140,1539.000000 288.799896,1539.000000 278.493652,1539.000000 
	C265.330780,1539.000000 252.167542,1538.945435 239.005325,1539.039307 
	C235.840683,1539.061890 234.859787,1538.807983 235.734177,1534.922729 
	C238.419128,1522.992676 243.365341,1513.000977 253.171066,1504.959106 
	C262.459625,1497.341187 285.493713,1496.731445 294.935333,1504.978760 
z"/>
</svg>